<svg xmlns="http://www.w3.org/2000/svg" viewBox="0 0 1211.742 438.298">                            <g id="_5250" data-name="5250" transform="translate(0 -0.008)">                                <path id="Path_9" data-name="Path 9"                                    d="M836.061,721.684c.132-1.628.973-15.563-7.244-21.023a13.033,13.033,0,0,0-4.2-1.952,17.488,17.488,0,0,0-2.114-.961c-3.19-3.892-6.247-6.469-8.74-7.028-4.559-1.021-9.28.162-12.482,1.345a5.761,5.761,0,0,1,2.126-1.946c-2.108.324-6.006,3.694-6.006,3.694-23.239-1.658-24.765,21.335-22.555,37.2h64.546C838.439,727.889,837.316,724.76,836.061,721.684Z"                                    transform="translate(-429.196 -634.875)" fill="#191919" />                                <path id="Path_10" data-name="Path 10"                                    d="M2036.582,890.188c-6.757-20.254-48.857-13.929-48.857-13.929s-28.585,35.439-36.9,36.285,17.149-34.171,17.149-34.171c-11.628-.913-36.28,7.208-49.079,11.767l24.813,62.077c9.01.6,15.016,5.73,24.585,9.532-3.742-.27-7.875-.336-11.8-.294a90.224,90.224,0,0,0-9.707-1.526l24.026,60.065c12.013-.276,26.249-13,26.249-13-10.079-.415-24.471-9.3-23.948-12.013s24.423,4.685,28.513,5.039,13.383-3.766,14.818-17.131-25.54-17.094-25.54-17.094-6.222,3.76-13.25,7.538a42.376,42.376,0,0,0-6.277-4.883c2.319-1.664,4.409-3.093,5.706-3.976a62.352,62.352,0,0,0,8.589,1.255c21.828,1.688,38.442-31.642,38.442-31.642-15.07,3.8-42.1-2.949-43.139-7.172s38.982-3.8,45.217-5.064S2043.339,910.442,2036.582,890.188Z"                                    transform="translate(-886.362 -708.835)" fill="#2e2e2e" />                                <path id="Path_11" data-name="Path 11"                                    d="M1079.1,694.34H968.445a163.327,163.327,0,0,1-12.926-31.276c-1.556-5.112-2.192-8.241-2.228-8.409h0c3.538-16.638,44.07-42.19,53.9-46.779.414-.2.919.066,1.448.6.132-.288.3-.631.487-1.009,1.309-2.589,3.826-6.7,6.985-7.682,4.685-1.466,13.935-2.4,14.512-.444s-11.587,9.01-12.115,11.268c-.7,3-4.511,4.373-5.892,4.805l.3.691-30.363,39.817c23.287,22.086,30.723,36.76,36.3,35.565,5.364-1.153,23.48,2.541,24.9,2.835.42-.1.847-.2,1.285-.282a59.71,59.71,0,0,0,1.724-22.158c-.45.354-7.208,3.244-23.552-21.425a23.125,23.125,0,0,1-1.2-21.155c3.88-8.487,20.284-16.818,34.237-21.227,5.226-1.664,9.106-1.634,12.145-.541,5.075,1.8,7.808,6.607,10.523,11.37,4.547,8.043,15.575,13.773,15.575,13.773A21.647,21.647,0,0,1,1082,636.563c3.862,11.827,7.977,35.234,1.442,38.111a59.128,59.128,0,0,1-5.934,1.718c.042.727.354,5.346,1.2,13.058.09.847.18,1.736.288,2.649Q1079.1,693.216,1079.1,694.34Z"                                    transform="translate(-500.752 -598.179)" fill="#191919" />                                <path id="Path_12" data-name="Path 12"                                    d="M1225.014,694.312h-62.8c5.79-2.4,14.752-5.892,18.47-5.916,5.712-.042,9.785-15.977,27.708-42.6h0l-38.3-32.339s.048-.282.138-.739c-1.43-.09-5.448-.6-6.787-3.394-1.009-2.1-14.416-6.325-14.271-8.367s9.37-3.123,14.26-2.715c3.772.312,7.616,4.805,9.19,6.871.4-.6.823-1,1.273-.9a139.106,139.106,0,0,1,15.317,4.853c17.419,6.433,42.352,17.941,47.452,29.108A153.587,153.587,0,0,1,1225.014,694.312Z"                                    transform="translate(-578.975 -598.15)" fill="#191919" />                                <path id="Path_13" data-name="Path 13" d="M1158.862,620.59a.317.317,0,0,0-.072-.09Z"                                    transform="translate(-582.818 -607.072)" fill="#191919" />                                <path id="Path_14" data-name="Path 14"                                    d="M2008.348,1105.194s-18.158-21.185-1.117-34.64c0,0,12.446-7.538,22.591-6.926,0,0-14.379,24.11-9.725,26.513s14.085-28.026,14.085-28.026,28.32-2.745,37.427,1.634c0,0-24.206,19.822-19.107,20.993s31.234-18.266,31.234-18.266,26.363,4.487,24.957,20.566-10.487,21.023-14.482,20.615-27.342-9.34-27.852-6.067,13.551,13.959,23.39,14.458c0,0-18.584,20.494-30.934,14.578s-13.407-15.287-21.1-18.806-14.271-3.508-11.094.078,17.113,7.076,21.515,14.86,8.349,13.04-4.427,11.118-33.546-11.274-34.459-21.978Z"                                    transform="translate(-918.727 -783.091)" fill="#70a21a" />                                <path id="Path_15" data-name="Path 15"                                    d="M2090.746,1104.818s-71.592-2.757-87.4,17.719c0,0-3.5,10.469-14.253,20.008l-1.682,4.571s12.41-13.082,16.818-13.875C2004.258,1133.24,1997.315,1107.881,2090.746,1104.818Z"                                    transform="translate(-913.725 -800.433)" fill="#70a21a" />                                <path id="Path_16" data-name="Path 16"                                    d="M1979.284,1166.517s-15.371,11.365-16.434,31.667l2.787.252s4.907-21.023,13.779-29.21S1979.284,1166.517,1979.284,1166.517Z"                                    transform="translate(-903.917 -824.406)" fill="#70a21a" />                                <path id="Path_17" data-name="Path 17"                                    d="M1968.107,987.349s-38.075-21.317-20.308-50.257c0,0,14.217-17.767,29.432-22.338,0,0-8.121,43.151,0,44.166s5.586-48.731,5.586-48.731,40.106-19.293,55.861-17.767c0,0-24.873,42.136-16.752,41.115s36.039-43.655,36.039-43.655,41.12-7.616,47.716,16.752-4.06,36.55-10.151,38.075-45.181,1.015-44.166,6.091,27.414,13.214,42.136,8.631c0,0-16.248,40.106-37.565,38.075s-27.925-15.233-41.121-16.218-22.825,2.541-16.248,6.091,28.939,1.165,39.6,10.211,19.287,14.65-.51,18.71-55.332,1.526-62.468-13.707Z"                                    transform="translate(-896.02 -714.199)" fill="#70a21a" />                                <path id="Path_18" data-name="Path 18"                                    d="M2096.792,931.2S1990.164,965.719,1978,1004.3c0,0,.51,17.263-10.151,37.06v7.616s11.166-25.888,17.257-29.432C1985.107,1019.532,1961.249,986.028,2096.792,931.2Z"                                    transform="translate(-905.914 -731.149)" fill="#587226" />                                <path id="Path_19" data-name="Path 19"                                    d="M1961.23,1111.453s-16.44,24.969-7.07,55.356l4.2-1.135s-4.1-33.474,4.5-50.3S1961.23,1111.453,1961.23,1111.453Z"                                    transform="translate(-899.294 -801.242)" fill="#587226" />                                <path id="Path_20" data-name="Path 20"                                    d="M2005.941,1194.6h1.736v-2.283H1854.36v2.283h2.493a74.6,74.6,0,0,0,46.628,66.889h-38.5a9.2,9.2,0,0,0-9.2,9.2H2007.01a9.2,9.2,0,0,0-9.2-9.2h-38.5a74.6,74.6,0,0,0,46.629-66.889Z"                                    transform="translate(-860.592 -835.427)" fill="#70a21a" />                                <rect id="Rectangle_19" data-name="Rectangle 19" width="1211.376" height="7.394"                                    rx="3.697" transform="translate(0 430.912)" fill="#2e3552" />                                <path id="Path_21" data-name="Path 21"                                    d="M1858.128,1173.451H1772.15l.072-2.138,6.655-203.687s82.031-22.416,102.64-1.093c18.02,18.686,67,92.645,69.573,136.42C1953.6,1145.485,1906.534,1173.451,1858.128,1173.451Z"                                    transform="translate(-827.761 -741.585)" fill="#f1a34f" />                                <path id="Path_22" data-name="Path 22"                                    d="M1122,991.718s110.965-50.407,131.981-17.479c11.16,17.479,41.871,87.233,44.136,131.008,2.2,42.532-39.2,70.5-81.791,70.5h-75.634Z"                                    transform="translate(-568.126 -743.879)" fill="#d16e24" />                                <path id="Path_23" data-name="Path 23"                                    d="M757.76,749.753s498.62-4.385,553.694-4.265c28.327.06,17.317,24.375,25.125,50.455,17.239,57.536,39.871,131.543,36.273,144.349-5.13,18.218-503.834,23.341-517.511,19.137S757.76,749.753,757.76,749.753Z"                                    transform="translate(-422.668 -656.985)" fill="#e78b37" />                                <path id="Path_24" data-name="Path 24"                                    d="M1407.578,745.45s-65.885,47.734-55.224,154.746l159.011,4.841Z"                                    transform="translate(-659.651 -656.971)" fill="#723b17" />                                <path id="Path_25" data-name="Path 25"                                    d="M1646.912,745.45s-69.634,24.423-55.218,154.746l159.011,4.841Z"                                    transform="translate(-754.912 -656.971)" fill="#723b17" />                                <path id="Path_26" data-name="Path 26"                                    d="M906.482,797.444s1.868-27.089-4.673-24.759S853.7,812.857,860.237,902.072l19.149,16.344L1025.6,894.15Z"                                    transform="translate(-463.314 -667.79)" fill="#723b17" />                                <path id="Path_27" data-name="Path 27"                                    d="M1063.715,749.771s-39.805,34.177-39.925,146.944l4.805,49.476h249.83l-120-197.38Z"                                    transform="translate(-528.906 -658.313)" fill="#723b17" />                                <path id="Path_28" data-name="Path 28"                                    d="M1858.128,1270.269H1772.15l.072-2.138c2.793-2.048,8.073-4.607,16.608-7.911,47.782-18.476,113.986-60.2,113.986-60.2s24.26,12.7,48.274-.246C1953.6,1242.3,1906.534,1270.269,1858.128,1270.269Z"                                    transform="translate(-827.761 -838.402)" fill="#e29142" />                                <path id="Path_29" data-name="Path 29"                                    d="M1590.495,1121.773c-7.136,65.579-78.511,71.117-126.461,70.457l-473.963.084,8.043-44.881L1022.6,1010.8s493.166-16.872,513.672,1.922c9.521,8.722,52.755,52.371,54.659,92.26A107.656,107.656,0,0,1,1590.495,1121.773Z"                                    transform="translate(-515.44 -760.159)" fill="#df812f" />                                <path id="Path_30" data-name="Path 30"                                    d="M1802.581,1004.781s-1.736,12.259-46.479,11.358-94.23-2.805-100.826-2.937,77.839-52.257,107.175-42.328S1802.581,1004.781,1802.581,1004.781Z"                                    transform="translate(-780.942 -746.491)" fill="#b7591a" />                                <path id="Path_31" data-name="Path 31"                                    d="M1705.057,641.379c-7.893-4.012-21.221-14.3-32.033-11.412-2.277-5.406-7.592-13.407-18.873-12.127-16.818,1.9-16.025,16.818-16.025,16.818s1.718-7.562,4.805-8.487c0,0-5.075,9.574-2.721,15.191a11.412,11.412,0,0,0,14.344,6.006,39.841,39.841,0,0,0-3.412,10.349c-3.268,16.908,10.121,31.276,15.851,28,3.676-2.1,36.141-12.4,36.141-12.4C1709.454,656.786,1715.9,650.1,1705.057,641.379Z"                                    transform="translate(-774.237 -605.955)" />                                <path id="Path_32" data-name="Path 32"                                    d="M1796.1,968.058s-.3,4.481-3.742,6.769-5.556,6.932.961,12.133,13.286,13.983,17.485,17.161,10.373,4.913,11.911,1.2c0,0,.547-3.045-4.727-8.361s-4.805-9.641-6.865-15.827,2.859-20.1,2.859-20.1l-9.22-8.031Z"                                    transform="translate(-834.527 -739.855)" />                                <path id="Path_33" data-name="Path 33"                                    d="M1807.035,1020.528c-1.706,1.988-5.484,3.316-9.01,3.556-3.724.258-10.259-.751-16.716-1.243a68.027,68.027,0,0,0-7.742-.2c-8.337.36-9.779-4.529-8.691-8.511s-1.634-7.556-1.634-7.556l-.348-1.8-3-15.257h12.229s3.5,8.836,7.809,14.037a12.8,12.8,0,0,0,3.267,3c3.5,2.054,5.778,4.2,8.812,5.688a17.8,17.8,0,0,0,6.757,1.73c7.472.547,9.058,3.2,9.058,3.2A3.3,3.3,0,0,1,1807.035,1020.528Z"                                    transform="translate(-822.865 -754.435)" fill="#444954" />                                <path id="Path_34" data-name="Path 34"                                    d="M1714.931,748.176s-25.384-.631-42.088,5.1c0,0-17,5.106-25.552,9.61a8.709,8.709,0,0,0-4.589,7.136c-.9,13.509-1.2,55.494,28.339,68.883,0,0,48.8-18.71,56.57-21.293C1748.328,810.74,1714.931,748.176,1714.931,748.176Z"                                    transform="translate(-775.96 -658.051)" fill="#444954" />                                <path id="Path_35" data-name="Path 35"                                    d="M1718.207,740.634v.078a42.045,42.045,0,0,1-5.9,15.118,20.1,20.1,0,0,1-4.133-1.237c-6.709-2.739-12.458-8.409-12.469-9.01a83.685,83.685,0,0,0,.492-14.524l1.238.2,19.089,3.1A50.1,50.1,0,0,0,1718.207,740.634Z"                                    transform="translate(-797.231 -651.224)" fill="#ed975d" />                                <path id="Path_36" data-name="Path 36"                                    d="M1726.15,747.16a42.049,42.049,0,0,1-5.9,15.118,20.086,20.086,0,0,1-4.133-1.237,20.871,20.871,0,0,1-.487-3.568C1715.393,751.268,1724.2,747.845,1726.15,747.16Z"                                    transform="translate(-805.187 -657.654)" fill="#ffb27d" />                                <path id="Path_37" data-name="Path 37"                                    d="M1719.829,716.266s-1.141.036-2.961-.036c-7.112-.324-24.627-2.493-24.873-16.128-.331-17.137-4.108-28.549,13.437-29.888a38.3,38.3,0,0,1,12.746.781c6.811,1.862,8.806,6.133,9.839,10.043C1729.517,686.738,1726.971,715.581,1719.829,716.266Z"                                    transform="translate(-795.526 -626.856)" fill="#ed975d" />                                <path id="Path_38" data-name="Path 38"                                    d="M1727.919,716.9s-1.141.036-2.961-.036c-6.457-.673-13.334-4.865-13.268-17.455.1-17.2,2.745-24.573,14.578-27.78,6.811,1.862,8.805,6.133,9.839,10.043C1737.608,687.373,1735.061,716.216,1727.919,716.9Z"                                    transform="translate(-803.616 -627.491)" fill="#ffb27d" />                                <path id="Path_39" data-name="Path 39"                                    d="M1673.219,748.91s-14.782,16.218-9.712,29.282S1681.664,756.406,1673.219,748.91Z"                                    transform="translate(-783.952 -658.352)" fill="#ed975d" />                                <path id="Path_40" data-name="Path 40"                                    d="M1787.258,731.22s8.259,28.315-2.4,31.937S1783.168,733.887,1787.258,731.22Z"                                    transform="translate(-830.826 -651.288)" fill="#ffb27d" />                                <path id="Path_41" data-name="Path 41"                                    d="M1720.03,671.845s-5.346,14.266-13.317,13.539c-8.409-.763-14.265,11.2-15.124,9.514-2.445-4.805-5.706-4.439-6.433-1.724s2.5,6.511,2.319,8.866-.132,5.808-.132,5.808-17.041-2.4-13.214-17.052a132.374,132.374,0,0,1,11.046-27.534s14.416-2.5,19.023-1.97C1716.678,662.745,1720.03,671.845,1720.03,671.845Z"                                    transform="translate(-788.393 -623.333)" />                                <path id="Path_42" data-name="Path 42"                                    d="M1794.189,895.363c-1.628,8.133-55.362,13.04-76.283,3.652a33.161,33.161,0,0,0-18.41-2.877c-11.779,1.544-22.224,8.83-35.961,11.545-20.35,4.024-106.712,13.274-112.508-2.451s-3.147-32.9,15.136-43.133c10.74-6.007,18.308-28.609,22.723-46.25,1.94-7.742,3.273-14.518,4-18.512.438-2.4.655-3.79.655-3.79.661-2.174,7.923-27.2,23.5-38.069,5.844-4.072,10.211-9.809,13.887-15.311,6.109-9.154,10.211-17.659,15.821-16.752,5.19.847,9.046,3.148,12.614,3.97a8.715,8.715,0,0,0,7.809-1.652c3.67-2.763,6.655-6.649,10.049-8.157,2.631-1.2,5.514-.925,9.148,2.367,6.859,6.2,8.211,33.841,12.506,44.262a13.9,13.9,0,0,0,.925,1.892,3.927,3.927,0,0,0,2.349,2.066,4.424,4.424,0,0,0,1.081.072c2.324-.036,5.886-1.261,10.163-2.9a.891.891,0,0,0,.162-.06c8.914-3.43,20.867-8.625,31.036-8.782a27.05,27.05,0,0,1,3.658.18,19.942,19.942,0,0,1,4.265.979C1768.829,763.49,1795.823,887.267,1794.189,895.363Z"                                    transform="translate(-738.361 -645.579)" fill="#807b7a" />                                <path id="Path_43" data-name="Path 43"                                    d="M1780.851,728.061a10.871,10.871,0,0,0-9.112-4.751c-6.1.132-7.418,3.045-7.917,3.9s3.694,6.559,7.917,5.88,8.025,2.15,9.112.054S1780.851,728.061,1780.851,728.061Z"                                    transform="translate(-824.42 -648.129)" fill="#ffb27d" />                                <path id="Path_44" data-name="Path 44"                                    d="M1847.933,783.053s-10.211,3.093-14.98,15.863c-4.2,11.412-26.3,15.239-32.393-6.445a3.926,3.926,0,0,0,2.349,2.066,4.418,4.418,0,0,0,1.081.072c2.234.084,5.82-1.2,10.163-2.9a.9.9,0,0,0,.162-.06c8.919-3.544,20.981-8.968,31.036-8.782a25.532,25.532,0,0,1,2.571.18Z"                                    transform="translate(-839.107 -671.911)" fill="#baaaa9" />                                <path id="Path_45" data-name="Path 45"                                    d="M1615.85,828.1c3.105-12.379,4.655-22.3,4.655-22.3.661-2.174,7.922-27.2,23.5-38.069,5.844-4.072,10.211-9.809,13.887-15.311,8.235-3.129,13.749-4.925,13.749-4.925S1689.754,853.433,1615.85,828.1Z"                                    transform="translate(-765.343 -657.785)" fill="#baaaa9" />                                <path id="Path_46" data-name="Path 46"                                    d="M1689.175,750.793a13.859,13.859,0,0,0-5.406.487c-1.8.4-3.123.679-3.7-.432-1.087-2.1,0-5.082,0-5.082a10.919,10.919,0,0,1,8.3-4.745h.817c6.1.138,7.418,3.045,7.923,3.9S1693.4,751.471,1689.175,750.793Z"                                    transform="translate(-790.796 -655.202)" fill="#ffb27d" />                                <path id="Path_47" data-name="Path 47"                                    d="M1751.127,718.08s-1.075,17.419-17.857,9.809a8.716,8.716,0,0,0,7.809-1.652C1744.73,723.474,1747.716,719.588,1751.127,718.08Z"                                    transform="translate(-812.235 -646.041)" fill="#baaaa9" />                                <path id="Path_48" data-name="Path 48"                                    d="M1809.032,1028.366c-1.706,1.988-5.484,3.315-9.01,3.556-3.724.258-10.259-.751-16.716-1.243a68.056,68.056,0,0,0-7.742-.2c-8.337.361-9.779-4.529-8.691-8.511s-1.634-7.556-1.634-7.556l-.348-1.8c7.779-5.358,13.647-3.472,17.017-1.2a13.743,13.743,0,0,1,3.267,3s-.192,7.376,5.784,9.466S1805.152,1030.288,1809.032,1028.366Z"                                    transform="translate(-824.862 -762.274)" />                                <path id="Path_49" data-name="Path 49"                                    d="M1699.466,948.1c-11.779,1.544-22.224,8.83-35.961,11.545-20.35,4.024-106.712,13.274-112.508-2.451s-3.147-32.9,15.136-43.133c10.74-6.007,18.308-28.609,22.723-46.25,1.94-7.742,3.274-14.518,4-18.512,7.082-2.715,13.431-2.775,21.888-1.55,17.791,2.565,22.068,6.871,22.068,6.871s-10.457,25.342-3.382,23.744,47.145-17.569,58.81,4.361C1702.751,902.512,1713.011,935.572,1699.466,948.1Z"                                    transform="translate(-738.349 -697.518)" fill="#baaaa9" />                                <path id="Path_50" data-name="Path 50"                                    d="M1683.759,751.279c-1.8.4-3.123.679-3.7-.432-1.087-2.1,0-5.082,0-5.082a10.92,10.92,0,0,1,8.295-4.745S1682.96,746.666,1683.759,751.279Z"                                    transform="translate(-790.792 -655.202)" fill="#ed975d" />                                <path id="Path_51" data-name="Path 51"                                    d="M1590.495,1200.18c-7.136,65.579-78.511,71.117-126.461,70.457l-473.963.084,8.043-44.881c66.865.372,439.18,2.336,520.436.943C1569.316,1225.9,1585.768,1212.019,1590.495,1200.18Z"                                    transform="translate(-515.44 -838.566)" fill="#d16e24" />                                <path id="Path_52" data-name="Path 52"                                    d="M1685.656,982.679s1.357,4.283-1,7.67-2.643,8.481,5.322,10.938,17.479,8.163,22.549,9.61,11.448.781,11.526-3.207c0,0-.6-3-7.454-6.061s-7.983-7.208-12.163-12.229-4.685-19.755-4.685-19.755l-11.514-4.114Z"                                    transform="translate(-792.239 -744.859)" fill="#efefef" />                                <path id="Path_53" data-name="Path 53"                                    d="M1707.535,1021.965h0a17.065,17.065,0,0,1-7.046,1.994c-5.256.366-16.127-1.8-24.458-1.448s-9.779-4.529-8.691-8.511-1.634-7.562-1.634-7.562l-.6-3.081-2.745-13.947h12.229s3.688,9.31,8.133,14.416a16.981,16.981,0,0,0,1.2,1.3,9.911,9.911,0,0,0,1.694,1.291c5.622,3.31,8.1,6.877,15.569,7.424s9.058,3.2,9.058,3.2C1710.923,1019.046,1709.656,1020.74,1707.535,1021.965Z"                                    transform="translate(-783.917 -754.395)" fill="#e9f3fe" />                                <path id="Path_54" data-name="Path 54"                                    d="M1618.188,732.891c.306,5.544-19.822,35.7-30.381,45.469-1.922,1.8-3.526,2.865-4.637,3C1575.92,782.415,1569,760.22,1569,760.22s12.524-17.125,25.167-28.9c4.883-4.565,9.791-8.325,14-9.983a28.832,28.832,0,0,1,4.253,2.8C1615.058,726.247,1618,729.335,1618.188,732.891Z"                                    transform="translate(-746.634 -647.343)" fill="#ed975d" />                                <path id="Path_55" data-name="Path 55"                                    d="M1495.611,676.815c-4.3-4.595-21.209-21.293-32.724-13.082h-.282c-11.5-.2-24.909,2.865-29.564,25.354s2.217,33.324-11.634,40.526-12.536,16.4-10.812,25.5c0,0,7.3-12.986,14.055-10.722,0,0-10.662,10.325-10.812,18.584s7.532,16.866,11.725,20.218a11.864,11.864,0,0,1,11.827-1.718c14.416,5.22,37.241-15.617,36.61-25.6-.324-4.859,24.026-51.476,24.026-51.476C1504.368,687.813,1500.014,680.485,1495.611,676.815Z"                                    transform="translate(-682.957 -623.444)" />                                <path id="Path_56" data-name="Path 56"                                    d="M1481.012,790.063s-25.528,7.664-29.762,12.53c0,0,18.326,58.083,34.628,61.867,9.785,2.271,42.136-7.46,49.9-10.037,20.723-6.884-12.68-69.448-12.68-69.448S1497.723,784.333,1481.012,790.063Z"                                    transform="translate(-699.611 -672.747)" fill="#2e2e2e" />                                <path id="Path_57" data-name="Path 57"                                    d="M1618.188,728.489s-6.835-.426-15.311-.973c-2.781-.186-5.748-.384-8.709-.6-10.662-.721-21.215-1.46-22.987-1.73l-2.18-8.643s35.595-8.3,41.211-5.73a15.891,15.891,0,0,1,7.442,6.2C1620.962,722.608,1618.188,728.489,1618.188,728.489Z"                                    transform="translate(-746.634 -642.941)" fill="#ed975d" />                                <path id="Path_58" data-name="Path 58"                                    d="M1519.9,784.992a50.893,50.893,0,0,1-10.055-2.4c-5.934-2.084-9.442-4.625-9.064-5.057,1.838-2.1,4.355-7.809,3.748-23.942l1.237.2,19.089,3.105,1.8.288s-.1,2.565-.12,6.007c0,2.048,0,4.409.066,6.715.174,5.166,1.2,9.935,1.8,11.088C1529.132,782.367,1534.935,787,1519.9,784.992Z"                                    transform="translate(-719.38 -660.221)" fill="#ffb27d" />                                <path id="Path_59" data-name="Path 59"                                    d="M1526.556,763.192s-15.521,5.64-16.71,19.407c-5.935-2.084-9.442-4.625-9.064-5.057,1.838-2.1,4.355-7.808,3.748-23.942l1.237.2,19.089,3.105A50.238,50.238,0,0,0,1526.556,763.192Z"                                    transform="translate(-719.38 -660.225)" fill="#ed975d" />                                <path id="Path_60" data-name="Path 60"                                    d="M1530.369,738.818s-1.141.042-2.961-.036c-7.112-.318-24.627-2.487-24.873-16.127-.33-17.137-4.108-28.549,13.437-29.882a38.111,38.111,0,0,1,12.74.775c6.817,1.868,8.811,6.133,9.845,10.043C1540.057,709.283,1537.511,738.133,1530.369,738.818Z"                                    transform="translate(-719.866 -635.862)" fill="#ed975d" />                                <path id="Path_61" data-name="Path 61"                                    d="M1626.665,732.922c.306,5.544-19.822,35.7-30.381,45.469-4.613-4.805-6.385-12.47-6.007-18.818,0,0,9.154-15.935,21.107-27.63a59.848,59.848,0,0,1,9.508-7.772,33.036,33.036,0,0,1,5.244-2.751C1629.44,727.042,1626.665,732.922,1626.665,732.922Z"                                    transform="translate(-755.111 -647.374)" fill="#ffb27d" />                                <path id="Path_62" data-name="Path 62"                                    d="M1538.459,739.451s-1.141.042-2.961-.036c-6.457-.673-13.335-4.865-13.268-17.455.1-17.191,2.745-24.567,14.572-27.78,6.817,1.868,8.811,6.133,9.845,10.043C1548.148,709.917,1545.6,738.766,1538.459,739.451Z"                                    transform="translate(-727.956 -636.496)" fill="#ffb27d" />                                <path id="Path_63" data-name="Path 63"                                    d="M1553.7,778.98s12.986-9.01,16.95-9.4c0,0,15.917,13.118,11.839,30.6s-25.828-5.478-25.948-6.007S1553.7,778.98,1553.7,778.98Z"                                    transform="translate(-740.524 -666.607)" fill="#2e2e2e" />                                <path id="Path_64" data-name="Path 64"                                    d="M1506.82,822.2s48.617-.967,73.412,2.138c0,0,12.391,19.918.937,60.348,0,0-39.883,5.586-58.648,4.2,0,0-7.628-18.819-9.646-39.042S1506.82,822.2,1506.82,822.2Z"                                    transform="translate(-721.803 -687.562)" fill="#a8a8a8" />                                <path id="Path_65" data-name="Path 65"                                    d="M1505.318,822.29a119.975,119.975,0,0,0-1.616,35.132c1.952,16.95,17.317,31.54,17.317,31.54S1516.574,836.129,1505.318,822.29Z"                                    transform="translate(-720.3 -687.657)" fill="#4f5666" />                                <path id="Path_66" data-name="Path 66"                                    d="M1473.832,889.706a107.516,107.516,0,0,0,47.518-19.822L1516.964,859s-23.564,2.733-40.574,10.674h0c-.36-18.62-3.153-44-5.142-47.211l-.1-.144c-3.412-5.027-21.623-8.019-21.623-8.019s-10.4,35.5,9.911,76.337h0a65.143,65.143,0,0,0,10.091-.39c1.5-.132,3-.306,4.289-.547Z"                                    transform="translate(-697.86 -684.466)" fill="#ed975d" />                                <path id="Path_67" data-name="Path 67"                                    d="M1511.21,915.785s25.978,36.039,54.5,31.528,60.318-116.455,60.318-116.455-13.04-18.62-36.676-5.911S1511.21,915.785,1511.21,915.785Z"                                    transform="translate(-723.556 -686.945)" fill="#2e2e2e" />                                <path id="Path_68" data-name="Path 68"                                    d="M1645.432,829.211s19.437,100.976,27.63,103.607c8.6,2.763,16.878-2.9,16.878-2.9s8.5-101.877-20.861-105.114S1645.432,829.211,1645.432,829.211Z"                                    transform="translate(-776.978 -688.343)" fill="#2e2e2e" />                                <path id="Path_69" data-name="Path 69"                                    d="M1487.769,874.988h0c-7.736-6.475-12.379-38.388-12.379-38.388s1.105-7.808,7.148-9.01l.1.144C1484.628,830.99,1487.421,856.349,1487.769,874.988Z"                                    transform="translate(-709.251 -689.773)" fill="#ffb27d" />                                <path id="Path_70" data-name="Path 70"                                    d="M1602.3,830.889s-5.454,19.221-13.875,42.046c-2.4,6.517-5.046,13.323-7.881,20.068-2.625,6.277-5.406,12.5-8.331,18.368-9.424,19.035-20.038,34.369-30.231,35.985a35.038,35.038,0,0,1-15.617-1.2c-11.172-3.352-21.125-11.262-28.165-18.158a105.193,105.193,0,0,1-10.692-12.133s39.079-56.041,65.405-80.908h0c4.763-4.5,9.106-7.977,12.728-9.923C1589.261,812.286,1602.3,830.889,1602.3,830.889Z"                                    transform="translate(-714.091 -686.969)" fill="#4f5666" />                                <path id="Path_71" data-name="Path 71"                                    d="M1709.35,1028.758a17.066,17.066,0,0,1-7.046,1.994c-5.255.366-16.127-1.8-24.458-1.448s-9.779-4.529-8.691-8.511-1.634-7.562-1.634-7.562l-.6-3.081,1.135-3.73,10.1.258,6.379,3.964,1.6,1s-.144.1-.373.294c-1.2,1.009-4.595,4.457-1.628,8.409,3.532,4.679,12.968,5.85,15.719,7.574S1707.662,1028.992,1709.35,1028.758Z"                                    transform="translate(-785.738 -761.188)" fill="#efefef" />                                <path id="Path_72" data-name="Path 72"                                    d="M1550.462,719.946s-11.184-1.646-14.326-.919-14.073,5.352-13.539,7.478,8.757,5.91,12.115,5.22,6.085-.306,10.379-1.255,7.544-1.85,7.544-1.85Z"                                    transform="translate(-728.096 -646.345)" fill="#ed975d" />                                <path id="Path_73" data-name="Path 73"                                    d="M1536.465,707.564c-2.613.354-6.974-2.619-8.409-6.961-1.069-3.189-4.439-6.4-6.145-7.881-.51,2.042-5.7,21.341-19.389,27.978a64.189,64.189,0,0,0,10.812-13.677c-2.619,3.081-5.724,5.646-9.232,6.607-9.61,2.649-14.71,1.009-16.146.384a3.948,3.948,0,0,1-.427-.21,32.705,32.705,0,0,0,10.349-19.527s8.109-10.812,24.627-4.421c1.8-1.574,4.961-2.757,9.3,2.312a11.519,11.519,0,0,1,1.5,2.228C1537.366,702.194,1536.465,707.564,1536.465,707.564Z"                                    transform="translate(-714.099 -633.963)" />                                <path id="Path_74" data-name="Path 74"                                    d="M1472.067,834.014s-17.034,2.337-28.987-10.3c0,0,2.186-7.862,4.907-9.929s21.954-.126,24.08,5.448S1472.067,834.014,1472.067,834.014Z"                                    transform="translate(-696.348 -683.938)" fill="#2e2e2e" />                                <path id="Path_75" data-name="Path 75"                                    d="M1641.9,890.276c-2.4,6.517-5.045,13.323-7.881,20.068-2.631,6.277-5.406,12.5-8.331,18.368-10.854-30.513,2.343-64.336,2.835-64.672Z"                                    transform="translate(-767.567 -704.329)" fill="#4a4d52" />                                <path id="Path_76" data-name="Path 76"                                    d="M1621.7,829.191s10.7,69.718,27.179,112.641a36.806,36.806,0,0,0,10.746,0,43.759,43.759,0,0,0,8.283-3.051s6.805-110.754-22.554-114.016S1621.7,829.191,1621.7,829.191Z"                                    transform="translate(-767.502 -688.323)" fill="#4f5666" />                                <path id="Path_77" data-name="Path 77"                                    d="M1536.749,708.9c-2.613.354-6.974-2.619-8.409-6.962-1.069-3.189-4.439-6.4-6.145-7.88-.511,2.042-5.7,21.341-19.389,27.978a64.189,64.189,0,0,0,10.812-13.677c-2.619,3.081-5.724,5.646-9.232,6.607-9.61,2.649-14.71,1.009-16.146.384,4.307-.721,13.214-2.739,17.143-7.568,5.3-6.493,14.356-16.362,17.419-16.59,2.589-.186,7.484,1.5,10.812,4.541C1537.65,703.528,1536.749,708.9,1536.749,708.9Z"                                    transform="translate(-714.383 -635.297)" fill="#2e2e2e" />                                <path id="Path_78" data-name="Path 78"                                    d="M1447.421,740.43s-.661,17.587-14.794,23.858S1411.28,786.6,1411.28,786.6s8.673-10.566,14.055-10.722S1457.873,763.285,1447.421,740.43Z"                                    transform="translate(-683.649 -654.966)" fill="#2e2e2e" />                                <path id="Path_79" data-name="Path 79"                                    d="M1526.316,955.639c-11.172-3.352-21.125-11.262-28.165-18.158a105.194,105.194,0,0,1-10.692-12.133s39.079-56.041,65.405-80.908C1552.276,845.281,1506.176,911.293,1526.316,955.639Z"                                    transform="translate(-714.071 -696.502)" fill="#4a4d52" />                                <path id="Path_80" data-name="Path 80"                                    d="M1593.362,1265.878h-22.993c-3.838-1.009-8.848-4.2-10.451-13.935,0,0,.559-2.787-12.193-15.052-5.178-4.973-8.121-10.631,0-17.966s10.631-30.705,10.631-30.705l14.332,28.231a34.851,34.851,0,0,0,3.8,18.206c4.2,7.76,5.148,21.461,8.824,23.095C1588.713,1259.289,1595.014,1264.221,1593.362,1265.878Z"                                    transform="translate(-736.123 -833.79)" fill="#1c1c1c" />                                <path id="Path_81" data-name="Path 81"                                    d="M1486.317,1261.709s.907,9.4,6.007,11.412,13.581,6.163,20.65,9.058,17.569,2.168,14.668,9.148h-57.963s-7.61.925-3.989-14.8-.973-24.777-.973-24.777Z"                                    transform="translate(-704.987 -859.16)" fill="#1c1c1c" />                                <path id="Path_82" data-name="Path 82"                                    d="M1493.823,1126.137a105.671,105.671,0,0,1-10.89.186,40.871,40.871,0,0,1-6.487-.709,41.446,41.446,0,0,1-13.6-5.694s-3.922-59.513,2.523-100.754a3.094,3.094,0,0,1,.066-.4c.414-2.607.2-4.385-.6-5.538-1.315-1.886-4.2-2.15-8.487-1.736-28.231,2.733-92.363,2.264-108.844-8.788-21.588-14.47,6.721-48.052,6.721-48.052s26.843-2.871,58.864-4.391c38.964-1.844,85.629-1.7,101.1,8.025C1514.2,958.3,1536.4,982.082,1493.823,1126.137Z"                                    transform="translate(-654.939 -738.394)" fill="#424242" />                                <path id="Path_83" data-name="Path 83"                                    d="M1464.816,1013.836c-1.315-1.886-4.2-2.15-8.487-1.736-28.231,2.733-92.362,2.265-108.844-8.787-21.587-14.47,6.721-48.052,6.721-48.052s26.843-2.871,58.864-4.391C1422.229,958.456,1468.708,997.913,1464.816,1013.836Z"                                    transform="translate(-654.931 -739.005)" fill="#1c1c1c" />                                <path id="Path_84" data-name="Path 84"                                    d="M1309.372,606.124s-5.027-7.472-9.917-7.88-14.133.679-14.266,2.715,13.262,6.265,14.271,8.373c1.64,3.412,7.3,3.412,7.3,3.412Z"                                    transform="translate(-633.294 -598.15)" fill="#ffb27d" />                                <path id="Path_85" data-name="Path 85"                                    d="M1271.047,756.967a26.728,26.728,0,0,1-18.428,2.619,38.443,38.443,0,0,1-12.53-5.19,36.909,36.909,0,0,1-5.069-3.76s.222-.324.6-.955c1.9-3.316,7.676-15.227,4.943-34.285-.138-.985,30.081,7.352,31.084,7.634h0s.282,4.751,1.2,13.172c.09.847.18,1.742.288,2.661C1274.051,746.36,1271.047,756.967,1271.047,756.967Z"                                    transform="translate(-613.26 -644.937)" fill="#ffb27d" />                                <path id="Path_86" data-name="Path 86"                                    d="M1272.047,723.031c-.889-.078-22.825-1.694-17.473,26,1.2,6.157.384,9.394-1.544,10.56-2.751,1.67-7.808-.9-12.53-5.19a45.887,45.887,0,0,1-4.481-4.715c1.9-3.316,7.676-15.227,4.943-34.285C1240.813,714.411,1271.056,722.748,1272.047,723.031Z"                                    transform="translate(-613.66 -644.936)" fill="#ed975d" />                                <path id="Path_87" data-name="Path 87"                                    d="M1275.131,690.961a64.266,64.266,0,0,1-11.845,2.847c-9.713,1.381-22.5.7-26.6-11.034-6.9-19.75-15.617-31.558,4.2-39.781,10.625-4.4,17.419-4.679,22.08-3.057,4.03,1.394,6.427,4.2,8.241,7.034C1275.131,653,1283.132,687.441,1275.131,690.961Z"                                    transform="translate(-610.737 -614.47)" fill="#ed975d" />                                <path id="Path_88" data-name="Path 88"                                    d="M1283.693,691.565a64.27,64.27,0,0,1-11.845,2.847c-6.006-1.105-11.328-4.2-13.719-11.034-6.9-19.749-15.617-31.558,4.2-39.781a60.515,60.515,0,0,1,9.2-3.057c4.03,1.393,6.427,4.2,8.241,7.034C1283.693,653.6,1291.694,688.046,1283.693,691.565Z"                                    transform="translate(-619.299 -615.075)" fill="#ffb27d" />                                <path id="Path_89" data-name="Path 89"                                    d="M1274.861,638.368c-11.467,8.361-27.462.33-32.405,2.565s-5.766,10.547-5.832,13.178-.4,4.871-7.136,3.34a3.274,3.274,0,0,0-2.445.162c-2.775,1.676.847,9.67,1.934,11.412,0,0,1.586,5.736-1.8,8.553-.414.336-7.136,3.334-23.558-21.419a23.1,23.1,0,0,1-1.2-21.155c3.88-8.493,20.29-16.818,34.237-21.227,5.22-1.664,9.1-1.634,12.145-.541,5.076,1.8,7.808,6.607,10.517,11.37C1263.833,632.608,1274.861,638.368,1274.861,638.368Z"                                    transform="translate(-599.439 -603.863)" fill="#a9453d" />                                <path id="Path_90" data-name="Path 90"                                    d="M1308.883,891.95l-6.727.541-87.455,6.968s-14.89-22.224-19.383-59.879a198.264,198.264,0,0,1-1.405-33.324c1.273-24.026,8.667-44.773,28.831-48.515,0,0,19.377,10.746,33.636,2.589,0,0,28.4,4.078,34.922,10.872,5,5.214,4.427,41.589,8.794,64.871h0c1.315,7.034,3.087,12.872,5.6,16.278,1.309,1.766,2.517,3.478,3.646,5.13l.15.222a122.882,122.882,0,0,1,9.61,16.548,12.421,12.421,0,0,1-10.217,17.7Z"                                    transform="translate(-596.761 -661.879)" fill="#424242" />                                <path id="Path_91" data-name="Path 91"                                    d="M1337.265,740.563c-47.283,44.785-39.511-39.943-39.511-39.943s18.068-8.169,23.78-8.211,9.785-15.977,27.708-42.592h0l-38.316-32.339s1.694-9.706,3.8-9.238a137.736,137.736,0,0,1,15.317,4.859c17.455,6.427,42.352,17.935,47.452,29.1C1377.508,642.2,1378.866,701.19,1337.265,740.563Z"                                    transform="translate(-638.122 -602.169)" fill="#424242" />                                <path id="Path_92" data-name="Path 92"                                    d="M1191,610.563c-.7,3-4.511,4.373-5.886,4.805-.312.09-.5.132-.5.132l-3.664-5.406-.318-.48s.174-.444.5-1.147c.138-.288.3-.631.487-1.009,1.309-2.583,3.826-6.7,6.986-7.682,4.685-1.466,13.941-2.4,14.512-.444S1191.532,608.3,1191,610.563Z"                                    transform="translate(-591.54 -598.175)" fill="#ffb27d" />                                <path id="Path_93" data-name="Path 93"                                    d="M1149.966,748.252c-35.09-21.023-50.978-56.461-57.2-75.082a109.755,109.755,0,0,1-3.436-12.2c3.532-16.65,44.07-42.2,53.891-46.785.42-.2.919.066,1.448.6a8.81,8.81,0,0,1,.72.871,37.079,37.079,0,0,1,3.262,6.043l.294.691-30.381,39.877c23.287,22.092,30.723,36.766,36.3,35.565s25,2.853,25,2.853S1205.845,781.7,1149.966,748.252Z"                                    transform="translate(-555.079 -604.525)" fill="#424242" />                                <path id="Path_94" data-name="Path 94"                                    d="M1395.209,1150.755s-1.532.469-4.006.949a53.415,53.415,0,0,1-9.935.973c-5.063,0-12.686-1.922-12.686-1.922-27.954-89.245-16.71-113.253-16.086-118.7.066-.6,0-.949-.216-1.165-7.172-6.733-44.508-.192-81.929-5.9s-41.691-43.247-41.691-43.247l55.164-17.863s94.3,12.668,115.253,31.444C1411.078,1006.112,1395.209,1150.755,1395.209,1150.755Z"                                    transform="translate(-610.72 -744.2)" fill="#424242" />                                <path id="Path_95" data-name="Path 95"                                    d="M1248.769,613.207c-4.547-.973-10.151-.234-14.764,6.151-9.418,13.046-4.349,26.633-7.971,31.342-2.018,2.631-.937,4.3,1.009,6.9-2.775,1.676.847,9.67,1.934,11.412,0,0,1.586,5.736-1.8,8.553-.414.336-7.136,3.334-23.558-21.419a23.1,23.1,0,0,1-1.2-21.155c3.88-8.493,20.29-16.818,34.237-21.227C1241.843,612.084,1245.723,612.114,1248.769,613.207Z"                                    transform="translate(-599.439 -603.852)" fill="#7f2722" />                                <path id="Path_96" data-name="Path 96"                                    d="M1294.892,620.59l-.072-.09A.236.236,0,0,1,1294.892,620.59Z"                                    transform="translate(-637.141 -607.072)" fill="#7f2722" />                                <path id="Path_97" data-name="Path 97"                                    d="M1471.7,1197.07a53.408,53.408,0,0,1-9.935.973c-5.063,0-12.686-1.922-12.686-1.922-27.954-89.245-16.71-113.253-16.085-118.7C1434.86,1087.223,1448.6,1156.676,1471.7,1197.07Z"                                    transform="translate(-691.221 -789.542)" fill="#1c1c1c" />                                <path id="Path_98" data-name="Path 98"                                    d="M1564.23,1172.756a40.853,40.853,0,0,1-6.487-.709,41.444,41.444,0,0,1-13.6-5.694s-3.922-59.513,2.523-100.754C1548.445,1085.133,1554.277,1145.787,1564.23,1172.756Z"                                    transform="translate(-736.236 -784.822)" fill="#1c1c1c" />                                <path id="Path_99" data-name="Path 99"                                    d="M1245.031,856.849c-15.617-11.364-12.65-19.065-6.853-23.461s-30.429-9.364-45.049-13.491S1166.79,743.614,1156,730.261c-7.334-9.058-28.639-32.922-42.863-49.133-.823-.979-7.7-9.5-8.2-20.236-.487-10.421,33.517-39.427,39.529-44.448l.9-.757s-1.2-1.892-2.168-1.46c-9.869,4.481-50.359,30.135-53.89,46.785h0c.048.258.7,3.4,2.234,8.439,13.166,44.7,43.037,72.583,49.41,76.679,6.77,4.343,6.739,13.4,6.739,13.4-1.363,40.55,18.938,77.4,27.137,90.542,3.532,11.346,13.425,31.234,39.854,35.282,37.421,5.706,74.757-.835,81.929,5.9.234.216.282.6.216,1.165C1300.784,877.151,1274.427,865.258,1245.031,856.849Z"                                    transform="translate(-555.067 -604.542)" fill="#1c1c1c" />                                <path id="Path_100" data-name="Path 100"                                    d="M1365.374,677.46s.114,60.81-27.714,42.6c5.712-.036,9.785-15.977,27.708-42.592Z"                                    transform="translate(-654.249 -629.819)" fill="#1c1c1c" />                                <path id="Path_101" data-name="Path 101"                                    d="M1358.316,649.8,1320,617.477s1.694-9.706,3.8-9.238a137.738,137.738,0,0,1,15.317,4.859C1348.231,620.829,1358.082,649.125,1358.316,649.8Z"                                    transform="translate(-647.197 -602.169)" fill="#1c1c1c" />                                <path id="Path_102" data-name="Path 102"                                    d="M1240.06,758.24s21.51,21.876,36.748,17.257c0,0,2.012-3-4.871-3.892S1257.635,771.136,1240.06,758.24Z"                                    transform="translate(-615.273 -662.078)" fill="#1c1c1c" />                                <path id="Path_103" data-name="Path 103"                                    d="M1374.349,909.549c-2.775-4.2-11.1,1.8-16.536,1.568s7.124-22.7,7.286-22.987h0c1.315,7.034,3.087,12.872,5.6,16.278C1372.013,906.186,1373.22,907.873,1374.349,909.549Z"                                    transform="translate(-661.753 -713.95)" fill="#1c1c1c" />                                <path id="Path_104" data-name="Path 104"                                    d="M977.783,732.528h0c-5.61-19.683-18.452-40.052-26.068-41.757-4.553-1.021-9.28.156-12.476,1.339a5.778,5.778,0,0,1,2.12-1.94c-2.108.324-6.007,3.7-6.007,3.7-31.378-2.246-23.167,40.442-19.647,49.854s6.968,20.464-4.415,33.354c-22.4,25.372,9.881,47.854,9.881,47.854.252.06,19.407,17.6,19.407,17.6-2.763-6.757,15.665-49.139,30.279-70.8,1.688-2.511,3.334-4.739,4.877-6.607,2.5-8.085.51-20.422.348-21.371,2.078,9.61,2.078,15.371,1.55,18.764C981.837,755.359,981.062,744.061,977.783,732.528Z"                                    transform="translate(-480.82 -634.895)" fill="#212121" />                                <path id="Path_105" data-name="Path 105"                                    d="M1184.19,804.615c.469-.7,4.439-12.848,8.643-12.614s10.74.937,12.379.468,7.118-4.607,8.055-3.6c2.337,2.451-2.919,10.043-6.655,11.208s-9.809-.6-11.208.817-1.171,6.427-1.171,6.427Z"                                    transform="translate(-592.961 -674.246)" fill="#ffb27d" />                                <path id="Path_106" data-name="Path 106"                                    d="M1019.262,790.7c.529-3.394.529-9.154-1.55-18.764.162.967,2.156,13.286-.348,21.371-1.544,1.868-3.189,4.1-4.877,6.607-2.769.21-4.7.24-4.805-.048-.408-1.087,1.5-13.214,1.5-13.214.114-.294,8.6-11.827,10.211-25.918C1022.692,772.239,1023.467,783.537,1019.262,790.7Z"                                    transform="translate(-522.45 -663.073)" fill="#525252" />                                <path id="Path_107" data-name="Path 107"                                    d="M1367.421,1239.36c-.456,4.955,6.439,6.157,14.416,6.559s5.58,2.03,16.524,4.012,15.341-1.009,16.133-2.493c.7-1.309-4.385-3.364-9.809-5.682-.685-.288-1.37-.6-2.054-.889-6.1-2.685-9.532-8.157-14.289-13.214-4.511-4.805-8.794-20.206-8.794-20.206l-14.878-3.177s4.2,13.857,5.628,19.774c.853,3.484-.4,7.37-1.52,10.331A19.226,19.226,0,0,0,1367.421,1239.36Z"                                    transform="translate(-665.035 -840.199)" fill="#ffb27d" />                                <path id="Path_108" data-name="Path 108"                                    d="M1383.671,1265.919c7.995.4,5.58,2.03,16.524,4.012s15.341-1.009,16.133-2.493c.7-1.309-4.385-3.364-9.808-5.682l-.084.09a31.231,31.231,0,0,1-16.59.2c-7.244-1.964-14.248-6.295-19.221-7.694a19.224,19.224,0,0,0-1.37,5.01C1368.786,1264.315,1375.7,1265.516,1383.671,1265.919Z"                                    transform="translate(-666.858 -860.198)" fill="#c6c6c6" />                                <path id="Path_109" data-name="Path 109"                                    d="M1275.625,1114.412s-1.844,1.478-5.958,1.922c-3.826.414-12.253-1.832-12.253-1.832s-16.734-23.882-30.032-45.572c-8-13.04-14.752-25.281-15.887-31.078-3-15.425-2.283-29.186-9.172-29.558s-92.657,10.433-105.637-12.433-2.246-45.481-2.246-45.481l15.233,11.142s98.88-7.436,117.494,4.313c4.535,2.865,9.743,13.16,15.016,27.1C1258.555,1036.165,1275.625,1114.412,1275.625,1114.412Z"                                    transform="translate(-555.455 -738.809)" fill="#c6c6c6" />                                <path id="Path_110" data-name="Path 110"                                    d="M1127.494,826.773c-6.727,17.023-22.963,44.761-27.156,45.812-3.532.883-20.825-3.063-34.868-7.857-8.217-2.811-15.323-5.9-17.911-8.493-7-7-30.069-48.166-30.069-48.166s21.66-2.745,31.937,3.328,35.03,34.1,38.766,33.162,21.485-32.231,28.495-35.03c0,0,10.74-2.337,13.545,5.135C1130.935,816.544,1129.752,821.049,1127.494,826.773Z"                                    transform="translate(-526.39 -681.73)" fill="#21314a" />                                <path id="Path_111" data-name="Path 111"                                    d="M1304.427,1265.8c-.456,4.956,6.439,6.157,14.416,6.553s5.574,2.036,16.524,4.018,15.335-1.009,16.127-2.493c.709-1.309-4.385-3.364-9.809-5.682-.685-.288-1.37-.6-2.048-.889-6.109-2.685-9.532-8.163-14.3-13.214-4.511-4.805-8.788-20.206-8.788-20.206l-14.884-3.177s4.2,13.857,5.628,19.773c.859,3.484-.4,7.37-1.52,10.331A19.656,19.656,0,0,0,1304.427,1265.8Z"                                    transform="translate(-639.877 -850.758)" fill="#ffb27d" />                                <path id="Path_112" data-name="Path 112"                                    d="M1320.69,1292.313c7.989.4,5.574,2.036,16.524,4.018s15.335-1.009,16.127-2.493c.709-1.309-4.385-3.364-9.809-5.682l-.084.09a31.125,31.125,0,0,1-16.584.2c-7.244-1.964-14.247-6.295-19.221-7.694a19.654,19.654,0,0,0-1.369,5.01C1305.8,1290.739,1312.708,1291.94,1320.69,1292.313Z"                                    transform="translate(-641.706 -870.741)" fill="#c6c6c6" />                                <path id="Path_113" data-name="Path 113"                                    d="M1152.768,839.62c-6.727,17.022-22.963,44.761-27.156,45.812-3.532.883-20.825-3.063-34.868-7.857a69.086,69.086,0,0,1-9.965-10.121c.462.174,33.2,12.584,39.7,9.8C1126.364,874.734,1143.02,846.311,1152.768,839.62Z"                                    transform="translate(-551.665 -694.577)" fill="#0b121f" />                                <path id="Path_114" data-name="Path 114"                                    d="M1227.371,1068.931c-8-13.04-14.752-25.281-15.887-31.078-3-15.425-2.282-29.186-9.172-29.558s-92.657,10.433-105.637-12.433-2.246-45.481-2.246-45.481l15.233,11.142s98.88-7.436,117.494,4.313c4.535,2.865,9.742,13.16,15.016,27.1C1233.966,1008.469,1221.581,1039.006,1227.371,1068.931Z"                                    transform="translate(-555.451 -738.809)" fill="#aaa" />                                <path id="Path_115" data-name="Path 115"                                    d="M1001.436,801.245c0,.12-7.616,7.532-15.016,7.748a14.721,14.721,0,0,1-7.334-2.036,25.227,25.227,0,0,1-6.331-4.877c2.565-1.375,2.2-5.37-2.775-21.473l1.309-.138L993.3,778.24s.559,2.445,1.411,5.736c.553,2.156,1.237,4.667,1.976,7.1C998.277,796.248,1000.085,801.053,1001.436,801.245Z"                                    transform="translate(-507.417 -670.065)" fill="#ffb27d" />                                <path id="Path_116" data-name="Path 116"                                    d="M979.234,803.119a13.278,13.278,0,0,1-.108,3.838,25.227,25.227,0,0,1-6.331-4.877c2.565-1.375,2.2-5.37-2.775-21.473l1.309-.138,22.008-2.228s.559,2.445,1.411,5.736C994.749,783.976,977.648,785.706,979.234,803.119Z"                                    transform="translate(-507.433 -670.065)" fill="#e2915a" />                                <path id="Path_117" data-name="Path 117"                                    d="M1220.363,1146.112s-1.91,1.406-6.007,1.688c-3.844.264-12.175-2.312-12.175-2.312s-40.49-62.846-42.9-78.373c-1.862-11.929-1.543-22.795-4.409-27.474a4.571,4.571,0,0,0-3.6-2.4c-6.871-.637-93,6.817-105.114-16.536-.1-.186-.186-.366-.276-.553-4.805-9.941-.7-18.927,5.568-25.93a70.263,70.263,0,0,1,15.953-12.686c2.607-1.544,4.331-2.4,4.331-2.4s34.057,1.61,64.138,5.838c18.23,2.559,34.994,6.079,41.836,10.782C1195.875,1008.22,1220.363,1146.112,1220.363,1146.112Z"                                    transform="translate(-536.886 -750.29)" fill="#c6c6c6" />                                <path id="Path_118" data-name="Path 118"                                    d="M1151.359,1037.207c-6.871-.637-93,6.818-105.114-16.536-.1-.186-.186-.366-.276-.553-4.439-9.232-.559-18.4,5.568-25.93A70.266,70.266,0,0,1,1067.49,981.5c2.607-1.544,4.331-2.4,4.331-2.4s34.057,1.61,64.138,5.838C1128.258,990.867,1117.686,1006.285,1151.359,1037.207Z"                                    transform="translate(-536.999 -750.278)" fill="#aaa" />                                <path id="Path_119" data-name="Path 119"                                    d="M957.428,747.564s-9.01-7.76-12.992-15.539c-2.841-5.55-6.493-28.231,16.338-31.775a31.036,31.036,0,0,1,13.743.9c5.73,1.76,14.7,6.607,12.836,27.924l-.036,7.022Z"                                    transform="translate(-496.373 -638.765)" fill="#212121" />                                <path id="Path_120" data-name="Path 120"                                    d="M1038.231,918.466c-.775,0-1.856-.042-3.13-.144-5.13-.39-13.31-1.49-16.175-2.343-24.17-7.208-47.385-16.127-57.272-47.416a95.6,95.6,0,0,1-3-12.373l3.814-14.35,7.352-30.327s9.01,4.805,17.419,2.973c4.307-.961,6.757-5.977,6.757-5.977s45.481,17.809,60.9,54.707,20.7,31.294,25.371,39.235S1064.233,918.315,1038.231,918.466Z"                                    transform="translate(-502.893 -682.154)" fill="#21314a" />                                <path id="Path_121" data-name="Path 121"                                    d="M992.619,756.075a54.883,54.883,0,0,1-9.346,1.94c-8.439,1.021-20.026.312-23.251-10.211-5.244-17.113-12.307-27.5,4.931-33.871,8.409-3.105,14-3.394,17.887-2.258,4.078,1.2,6.289,3.952,7.893,6.655C993.88,723.6,999.593,753.318,992.619,756.075Z"                                    transform="translate(-501.051 -643.239)" fill="#e2915a" />                                <path id="Path_122" data-name="Path 122"                                    d="M999.382,756.48a54.888,54.888,0,0,1-9.346,1.94c-5.754-.877-11.058-3.6-13.076-10.211-5.244-17.113-12.313-27.5,4.925-33.871a52.066,52.066,0,0,1,7.718-2.258c4.078,1.2,6.289,3.952,7.893,6.655C1000.643,724.009,1006.355,753.723,999.382,756.48Z"                                    transform="translate(-507.813 -643.645)" fill="#ffb27d" />                                <path id="Path_123" data-name="Path 123"                                    d="M973.809,707.5s-1.387,22.38-12.013,28.873A35.7,35.7,0,0,1,951.026,741a13.522,13.522,0,0,1-5.826.318,34.177,34.177,0,0,0,4.805-22.585s10.812-13.5,19.347-13.106A6.968,6.968,0,0,1,973.809,707.5Z"                                    transform="translate(-497.521 -641.063)" fill="#525252" />                                <path id="Path_124" data-name="Path 124"                                    d="M990.56,709.116s6.986,2.769,9.689,6.709,6.061,12.728,8.583,11.623c0,0,1.5-15.383-7.208-21.161C992.344,700.166,990.56,709.116,990.56,709.116Z"                                    transform="translate(-515.636 -640.476)" fill="#525252" />                                <path id="Path_125" data-name="Path 125"                                    d="M1037.014,952.624c-5.13-.391-13.311-1.49-16.176-2.343-24.17-7.208-47.385-16.128-57.272-47.416l-.126-.7,3.358-2.637a23.978,23.978,0,0,1,24.14-3.237C1010.027,904.374,1036.251,918.97,1037.014,952.624Z"                                    transform="translate(-504.805 -716.456)" fill="#0b121f" />                                <path id="Path_126" data-name="Path 126"                                    d="M950.393,851.453s-6.463,26.279-11.593,44.418c-1.49,5.3-2.877,9.9-3.946,12.95a12.826,12.826,0,0,1-1.742,3.814c-2.8,2.288-15.365,7.6-19.569,3s-.048-62.468,4.619-80.217c4.6-17.449,32.045-21.84,32.9-21.972h0C957.475,824.832,950.393,851.453,950.393,851.453Z"                                    transform="translate(-484.184 -684.126)" fill="#21314a" />                                <path id="Path_127" data-name="Path 127"                                    d="M860.941,305.44l-.09.462-10.415,51.434-4.463-.631-5.087-.721-3.874-.541-.12-.018-8.007-1.129-6.018-.847-8.019-1.123-3.982-.571-4.907-.691-3.057-.426,3.916-52.221.042-.589,3.3.463,8.079,1.141,3.153.438.829.12,8.013,1.123,1.838.264,4.187.583,8.007,1.135,3.988.559,8.253,1.159Z"                                    transform="translate(-320.636 -118.934)" fill="#e9f3fe" />                                <path id="Path_128" data-name="Path 128"                                    d="M810.156,298.293l-.048.583-4.151,52.191-3.057-.426,3.916-52.221.042-.589Z"                                    transform="translate(-320.636 -118.934)" fill="#c6c6c6" />                                <path id="Path_129" data-name="Path 129"                                    d="M889.578,310.085l-10.505,51.89-4.463-.625,10.529-51.89Z"                                    transform="translate(-349.273 -123.579)" fill="#c6c6c6" />                                <path id="Path_130" data-name="Path 130"                                    d="M827.512,301.055l-.084.577-7.286,51.758-3.982-.571,7.286-51.746.084-.577v-.006l3.153.444Z"                                    transform="translate(-325.931 -119.997)" fill="#c6c6c6" />                                <path id="Path_131" data-name="Path 131"                                    d="M870.848,307.159l-.078.583-7.286,51.746-3.874-.541-.12-.018.03-.228,7.256-51.524.084-.577Z"                                    transform="translate(-343.235 -122.437)" fill="#c6c6c6" />                                <path id="Path_132" data-name="Path 132"                                    d="M849.529,304.147l-.084.583-4.1,29.138-3.184,22.615-6.018-.847,7.286-51.752.078-.583,1.838.264Z"                                    transform="translate(-333.91 -121.119)" fill="#c6c6c6" />                                <path id="Path_133" data-name="Path 133"                                    d="M1063.2,901.685a1.255,1.255,0,0,1-.907,1.033,1.114,1.114,0,0,1-.348.054.907.907,0,0,1-.18,0l-3.934-.552-8.217-1.159-3.994-.559-8.007-1.129-4.144-.6-1.874-.27-8.019-1.129-3.982-.559-8.043-1.129-3.292-.463-.48-.072a1.267,1.267,0,0,1,.174-2.523.867.867,0,0,1,.174,0l4.2.6,21.335,3,22.945,3.238,5.5.769a1.279,1.279,0,0,1,1.093,1.448Z"                                    transform="translate(-522.073 -715.744)" fill="#e9f3fe" />                                <path id="Path_134" data-name="Path 134"                                    d="M1060.38,897.643l-22.945-3.238-21.335-3a11.061,11.061,0,0,1,10.211-3.13c4.349.727,8.187-.114,11.755,0a11.64,11.64,0,0,1,5.6,1.562C1048.829,892.838,1060.11,892.958,1060.38,897.643Z"                                    transform="translate(-525.835 -713.931)" fill="#ffc697" />                                <path id="Path_135" data-name="Path 135"                                    d="M1036.883,950.469h-.12l-8.031-1.141-6.007-.847-8.019-1.123-3.982-.565-4.907-.691-3.057-.427,3.928-52.209-.481-.072a1.267,1.267,0,0,1,.174-2.523.874.874,0,0,1,.174,0l4.2.6a11.061,11.061,0,0,1,10.211-3.129c4.349.727,8.187-.114,11.755,0-.2,1.652-.432,3.718-.649,6.109-.06.6-.114,1.279-.168,1.946a2.98,2.98,0,0,1-.042.6,178.592,178.592,0,0,0,.042,29.72,97.456,97.456,0,0,0,4.853,23.516A.962.962,0,0,1,1036.883,950.469Z"                                    transform="translate(-520.508 -713.959)" fill="#a8a8a8" />                                <path id="Path_136" data-name="Path 136"                                    d="M1048.8,947.347s16.218-3.147,18.086-2.361,12.055,9.959,11,11.8-5.238,3.141-9.959,1.568-14.938-2.355-16.77-4.715A15.46,15.46,0,0,1,1048.8,947.347Z"                                    transform="translate(-538.894 -736.604)" fill="#ffb27d" />                                <path id="Path_137" data-name="Path 137"                                    d="M996.678,957.254s-64.21,14.674-67.874,14.938-11.791,1.045-14.416-3.928,6.295-14.151,6.295-14.151a22,22,0,0,1,3.9-1.958,75.478,75.478,0,0,1,15.064-3.682C963.894,944.61,999.3,945.2,999.3,945.2,1004.018,951.746,996.678,957.254,996.678,957.254Z"                                    transform="translate(-485.024 -736.727)" fill="#21314a" />                                <path id="Path_138" data-name="Path 138"                                    d="M967.941,704.754c-1,.066-7.058.721-8.2,6.355s-4.114,23.341-10.812,30.381a14.033,14.033,0,0,1-6.055.324,35.5,35.5,0,0,0,4.979-23.456S959.064,704.34,967.941,704.754Z"                                    transform="translate(-496.591 -640.715)" fill="#212121" />                                <path id="Path_139" data-name="Path 139"                                    d="M1276,1185.719s-40.49-62.852-42.9-78.379c-1.868-11.929-1.538-22.795-4.409-27.48C1228.69,1079.86,1273.877,1114.356,1276,1185.719Z"                                    transform="translate(-610.732 -790.516)" fill="#aaa" />                                <path id="Path_140" data-name="Path 140"                                    d="M995.843,904.669s-64.21,14.674-67.874,14.938-11.791,1.045-14.416-3.928c-4.2-4.577-.048-62.468,4.619-80.217,4.6-17.449,32.045-21.84,32.9-21.972-.775.33-23.2,9.833-23.2,22.11,0,9.466-4.2,46.07-4.126,63.97.03,5.73.5,9.544,1.682,9.941,1.027.342,4.517,0,9.436-.673C953.37,906.3,992.233,898.909,995.843,904.669Z"                                    transform="translate(-484.188 -684.142)" fill="#0b121f" />                                <path id="Path_141" data-name="Path 141"                                    d="M1109.006,1129.574c-11.935,27.185-44.124,43.848-77.01,43.848H956.35L962.266,967.6s72.174-22.416,90.3-1.093c15.875,18.686,58.948,92.645,61.219,136.42A58.2,58.2,0,0,1,1109.006,1129.574Z"                                    transform="translate(-501.974 -741.573)" fill="#f1a34f" />                                <path id="Path_142" data-name="Path 142"                                    d="M1109.41,1235.149c-11.935,27.185-44.124,43.848-77.01,43.848H964.256c-13.31-15.07-9.01-22.224,27.63-34.333,49.8-16.476,77.52-22.993,77.52-22.993S1079.455,1235.713,1109.41,1235.149Z"                                    transform="translate(-502.378 -847.148)" fill="#e29142" />                                <path id="Path_143" data-name="Path 143"                                    d="M945.315,1018.8c-2.265-43.776-32.976-113.524-44.136-131.009-16.278-25.51-86.53-1.009-117.368,11.328-17.539-52.107-34.838-103.258-44.256-131a31.348,31.348,0,0,0-29.684-21.281s-50.149-7.406-57.909,59.4c-24.843,213.868-4.883,282.836,84.23,283.364,11.178.066,33.036-.132,51.656-.342v.03h75.64C906.116,1089.294,947.519,1061.328,945.315,1018.8Z"                                    transform="translate(-376.479 -657.428)" fill="#f1a34f" />                                <path id="Path_144" data-name="Path 144"                                    d="M945.325,1018.195c-2.271-43.9-32.976-113.854-44.142-131.387-13.857-21.78-66.823-7.208-101.294,5.232-6.007,2.174-11.491,4.289-16.074,6.127-17.539-52.257-34.838-103.559-44.256-131.381a31.354,31.354,0,0,0-29.684-21.335s-4.967.048-11.791.667h0c-11,1-26.8,3.508-34.381,9.725-5.136,4.2-8.667,22.711-11.731,49.182-7.244,62.534-10.68,112.718-9.7,152.452.5,20.374,2.162,38,5.069,53.134a154.965,154.965,0,0,0,7.953,28.231c14.224,35.745,40.43,50.148,80.908,50.389,4.7,0,11.3,0,18.752-.036,10.253-.066,22.128-.186,32.934-.306h75.646C906.12,1088.9,947.529,1060.853,945.325,1018.195Z"                                    transform="translate(-376.482 -656.971)" fill="#424242" />                                <path id="Path_145" data-name="Path 145"                                    d="M789.275,920.749s-42.2-155.137-45-166.982c-1.249-5.274-5.094-7.208-8.974-7.67,6.823-.6,11.791-.667,11.791-.667a31.343,31.343,0,0,1,29.685,21.278c9.4,27.747,26.716,78.905,44.237,131.03C825.614,895.882,789.275,920.749,789.275,920.749Z"                                    transform="translate(-413.698 -656.963)" fill="#f1a34f" />                                <path id="Path_146" data-name="Path 146"                                    d="M799.31,1044.661c-5.334-15.983-38.568-10.992-38.568-10.992s-22.561,27.978-29.132,28.645,13.545-26.975,13.545-26.975c-12.722-1-45.139,11.653-45.139,11.653s2.06,32.639-4.511,31.979,0-28.981,0-28.981c-12.307,3-23.8,14.656-23.8,14.656-14.356,18.987,16.416,32.976,16.416,32.976s.408,11.322-8.211,24.308c0,0-10.812,13.359-7.352,30.633h-9.532c1.8-12.427-5.82-21.852-5.82-21.852-6.535-9.857-6.223-18.446-6.223-18.446s23.341-10.614,12.445-25.011c0,0-8.715-8.848-18.05-11.118,0,0,4.979,21.474,0,21.984s-3.424-24.26-3.424-24.26-2.667-1.039-6.607-2.4c.5,20.32,2.162,37.9,5.064,52.984,2.889-1.159,5.106-2.673,6.2-4.583.186-.33.372-.643.547-.949a3.68,3.68,0,0,1-.547.949c2.24,1.063,5.6,6.121,7.929,9.995.33.667.859,1.574,1.634,2.811.318.565.6,1.027.751,1.345,2.691,5.46,2.793,13.413,2.5,18.566h-34.6v1.5h2.018c.733,19.9,16.109,36.814,37.679,43.884h-31.1c-4.114,0-7.442,2.7-7.442,6.006H748.194a5.092,5.092,0,0,0-.15-1.2c-.691-2.751-3.688-4.805-7.286-4.805H709.65c21.569-7.07,36.94-23.984,37.685-43.884h1.4v-1.5h-64.27a27.8,27.8,0,0,1,5.406-7.118l.967-.8c1.051-.793,1.8-1.387,2.289-1.8,3.231-2.523,7.706-5.742,9.857-6.049a2.769,2.769,0,0,1-.09-.883c0,.282.066.6.09.883.739,7.016,17.527,13.154,27.852,14.416s7.136-2.186,3.6-7.3-14.824-7.394-17.419-9.743,2.739-2.361,8.968-.054,7.07,8.457,17.052,12.338,25.053-9.581,25.053-9.581c-7.959-.33-19.317-7.346-18.9-9.49s19.275,3.7,22.506,3.982,10.565-3,11.7-13.527-20.164-13.491-20.164-13.491-4.913,2.967-10.463,5.953a33.5,33.5,0,0,0-4.949-3.856c1.8-1.315,3.478-2.445,4.5-3.141a49.913,49.913,0,0,0,6.781,1c17.233,1.328,30.363-24.981,30.363-24.981-11.9,3-33.234-2.331-34.057-5.664s30.771-3,35.7-3.994S804.643,1060.651,799.31,1044.661ZM693.865,1107.6a4.722,4.722,0,0,1-.715-1.243Zm-3.093,35.252a32.538,32.538,0,0,0-9.61,9.694h-4.072c-.5-6.607-.7-18.416,3.172-26.285.228-.426.565-1.027.985-1.8.511-.817.943-1.526,1.3-2.144s.6-1.129.853-1.562c3.075-5.118,7.5-11.779,10.451-13.178A11.308,11.308,0,0,0,697.1,1111c-5.6,8.481,5.184,18.7,5.184,18.7S699.469,1136.6,690.772,1142.856Zm21.023-23c-.979-.409-.907-1.8-.276-3.6,1.351.252,2.751.463,4.2.649-1.478,2.1-2.865,3.406-3.94,2.955Zm24.308-18.933c-8.824-1.976-19.461-1.61-23.353-3.3-5.334-2.337,2.463-4.667,13.13-4,7.208.45,11.941,4.511,19.539,7.532-2.973-.21-6.235-.264-9.328-.228Z"                                    transform="translate(-369.579 -771.776)" fill="#191919" />                                <path id="Path_147" data-name="Path 147"                                    d="M727.706,981.723c-5.334-19.7-38.592-13.539-38.592-13.539s-22.566,34.465-29.132,35.282,13.539-33.234,13.539-33.234c-12.716-1.231-45.133,14.362-45.133,14.362s2.054,40.208-4.511,39.391,0-35.7,0-35.7c-12.313,3.694-23.8,18.02-23.8,18.02-14.362,23.389,16.41,40.622,16.41,40.622s.408,13.953-8.2,29.955c0,0-10.812,16.452-7.358,37.727h-9.508a43.746,43.746,0,0,0-5.82-26.927c-6.535-12.109-6.223-22.669-6.223-22.669s23.347-13.076,12.451-30.813c0,0-8.715-10.9-18.056-13.7,0,0,4.979,26.459,0,27.083s-3.424-29.882-3.424-29.882-24.591-11.827-34.237-10.9c0,0,15.251,25.828,10.271,25.228s-22.1-26.771-22.1-26.771-25.227-4.667-29.258,10.271,2.487,22.411,6.223,23.347,27.7.6,27.077,3.736-16.818,8.091-25.828,5.292c0,0,9.965,24.585,23.035,23.341s17.119-9.334,25.227-9.959,14,1.556,9.959,3.736-17.743.715-24.278,6.271-11.827,8.98.312,11.472,33.925.931,38.28-8.409l.547-1.165a4.947,4.947,0,0,1-.547,1.165c2.246,1.309,5.61,7.556,7.941,12.337.33.811.853,1.928,1.628,3.442.276.6.5,1.117.673,1.5,2.757,6.733,2.871,16.632,2.571,23.041H553.216v1.844h2.012a60.305,60.305,0,0,0,37.685,54.059H561.806a7.442,7.442,0,0,0-7.442,7.436H676.591a7.442,7.442,0,0,0-7.442-7.436h-31.09a60.305,60.305,0,0,0,37.685-54.059H677.1v-1.844h-64.27a35.144,35.144,0,0,1,5.406-8.776l.973-.985c1.051-.973,1.8-1.706,2.283-2.252,3.231-3.105,7.706-7.07,9.863-7.454a4.105,4.105,0,0,1-.09-1.081c.03.348.06.7.09,1.081.739,8.655,17.527,16.218,27.852,17.767s7.136-2.7,3.574-9.01-14.818-9.112-17.389-12.013,2.745-2.907,8.968-.066,7.076,10.421,17.059,15.2,25-11.785,25-11.785c-7.953-.4-19.317-9.04-18.9-11.683s19.281,4.559,22.507,4.9,10.571-3.664,11.707-16.662-20.17-16.62-20.17-16.62-4.913,3.652-10.463,7.328a35.424,35.424,0,0,0-4.949-4.745c1.832-1.622,3.478-3,4.5-3.874a39.646,39.646,0,0,0,6.781,1.2c17.233,1.646,30.363-30.772,30.363-30.772-11.9,3.694-33.234-2.871-34.057-6.974s30.771-3.694,35.7-4.925S733.04,1001.418,727.706,981.723Zm-87.527,92.633c-.979-.5-.913-2.2-.282-4.433,1.357.306,2.757.6,4.2.8C642.636,1073.3,641.248,1074.908,640.179,1074.356Zm-21.023,28.339a36.638,36.638,0,0,0-9.611,11.947h-4.078c-.5-8.151-.7-22.693,3.172-32.387.234-.523.6-1.273.991-2.187,1.021-2.012,1.718-3.49,2.15-4.559,3.075-6.3,7.5-14.518,10.457-16.218a6.512,6.512,0,0,1-.721-1.538l.721,1.538a12.889,12.889,0,0,0,3.243,4.2c-5.61,10.445,5.178,23.035,5.178,23.035a41.786,41.786,0,0,1-11.5,16.163Zm45.319-51.656c-8.824-2.4-19.461-1.976-23.347-4.072-5.334-2.871,2.463-5.742,13.13-4.925,7.172.553,11.941,5.562,19.533,9.28a91.216,91.216,0,0,0-9.3-.288Z"                                    transform="translate(-317.238 -745.555)" fill="#70a21a" />                                <path id="Path_151" data-name="Path 151"                                    d="M1991.169,1174.863l-.739-2.613A17.081,17.081,0,0,1,1991.169,1174.863Z"                                    transform="translate(-914.931 -827.412)" fill="#a54e13" />                                <path id="Path_152" data-name="Path 152"                                    d="M1162.72,760.348c0-.715.042-1.424,0-2.108h4.883C1165.291,759.2,1163.489,760.006,1162.72,760.348Z"                                    transform="translate(-584.387 -662.078)" fill="#395b8e" />                            </g>                        </svg>